<?xml version="1.0" standalone="no"?>
<!DOCTYPE svg PUBLIC "-//W3C//DTD SVG 20010904//EN"
 "http://www.w3.org/TR/2001/REC-SVG-20010904/DTD/svg10.dtd">
<svg version="1.0" xmlns="http://www.w3.org/2000/svg"
 width="654.000000pt" height="654.000000pt" viewBox="0 0 654.000000 654.000000"
 preserveAspectRatio="xMidYMid meet">
<metadata>
Created by potrace 1.14, written by Peter Selinger 2001-2017
</metadata>
<g transform="translate(0.000000,654.000000) scale(0.100000,-0.100000)"
fill="#000000" stroke="none">
<path d="M0 3270 l0 -3270 3270 0 3270 0 0 3270 0 3270 -3270 0 -3270 0 0
-3270z m3680 2775 c673 -84 1244 -369 1745 -870 373 -372 629 -791 768 -1255
122 -404 156 -902 91 -1340 -74 -503 -277 -970 -600 -1375 -101 -126 -359
-388 -452 -459 -87 -66 -278 -176 -306 -176 -12 0 -30 6 -39 12 -9 7 -280 533
-603 1168 -883 1740 -851 1679 -887 1701 -78 47 -166 24 -211 -54 -13 -23
-340 -665 -726 -1427 -386 -762 -712 -1395 -723 -1407 -30 -34 -80 -47 -121
-33 -19 6 -88 50 -153 99 -706 522 -1084 1155 -1200 2011 -25 190 -25 672 0
845 75 501 255 942 538 1317 136 180 350 406 529 560 477 408 1064 647 1715
698 151 12 484 4 635 -15z"/>
<path d="M3021 5229 c-398 -42 -797 -210 -1101 -464 -105 -88 -294 -284 -369
-383 -223 -294 -355 -623 -406 -1005 -18 -137 -20 -450 -4 -595 37 -349 153
-674 338 -948 75 -113 228 -300 237 -291 2 2 287 562 634 1243 346 681 644
1259 662 1284 75 102 183 155 308 154 111 -1 178 -30 260 -113 64 -64 73 -81
394 -716 181 -357 333 -654 337 -659 5 -6 9 176 9 417 0 400 1 429 20 479 38
103 111 163 210 175 106 12 204 -47 257 -155 l28 -57 2 -950 2 -950 22 -47
c13 -27 26 -48 30 -48 14 0 116 129 187 235 169 255 277 542 329 875 24 161
24 529 0 690 -79 510 -282 903 -653 1260 -345 332 -743 517 -1226 569 -113 13
-386 12 -507 0z"/>
</g>
</svg>
